<?xml version="1.0" standalone="no"?>
<!DOCTYPE svg PUBLIC "-//W3C//DTD SVG 1.1//EN" "http://www.w3.org/Graphics/SVG/1.1/DTD/svg11.dtd">
<svg width="100%" height="100%" viewBox="0 0 138 22" version="1.1" xmlns="http://www.w3.org/2000/svg" xmlns:xlink="http://www.w3.org/1999/xlink" xml:space="preserve" style="fill-rule:evenodd;clip-rule:evenodd;stroke-linejoin:round;stroke-miterlimit:1.41421;">
    <g id="Page-1" transform="matrix(0.995558,0,0,0.995558,0.373878,0.0957429)">
        <path id="Fill-1" d="M0.188,3.517L4.194,2.872L4.194,7.038L9.005,7.038L9.005,10.372L4.194,10.372L4.194,15.345C4.194,16.188 4.342,16.859 4.637,17.361C4.933,17.863 5.529,18.114 6.425,18.114C6.855,18.114 7.299,18.073 7.756,17.993C8.212,17.912 8.629,17.8 9.005,17.657L9.57,20.775C9.086,20.973 8.548,21.143 7.957,21.286C7.366,21.429 6.64,21.501 5.78,21.501C4.686,21.501 3.781,21.353 3.065,21.057C2.348,20.762 1.774,20.35 1.344,19.821C0.914,19.293 0.614,18.651 0.444,17.898C0.273,17.146 0.188,16.313 0.188,15.399L0.188,3.517L0.188,3.517Z" style="fill:rgb(56,56,56);"/>
        <path id="Fill-3" d="M20.457,12.683C20.439,12.344 20.381,12.012 20.282,11.689C20.184,11.366 20.031,11.08 19.825,10.829C19.619,10.578 19.359,10.372 19.046,10.21C18.732,10.049 18.342,9.968 17.876,9.968C17.428,9.968 17.043,10.045 16.72,10.197C16.398,10.35 16.129,10.551 15.914,10.802C15.699,11.053 15.533,11.344 15.417,11.675C15.3,12.007 15.215,12.344 15.161,12.683L20.457,12.683ZM11.048,14.216C11.048,12.961 11.241,11.864 11.626,10.923C12.012,9.982 12.518,9.198 13.145,8.571C13.772,7.944 14.494,7.468 15.309,7.146C16.125,6.823 16.963,6.662 17.823,6.662C19.83,6.662 21.416,7.276 22.581,8.504C23.746,9.731 24.328,11.537 24.328,13.92C24.328,14.153 24.319,14.409 24.301,14.686C24.283,14.964 24.265,15.21 24.247,15.425L15.161,15.425C15.251,16.25 15.636,16.904 16.317,17.388C16.998,17.872 17.912,18.114 19.059,18.114C19.794,18.114 20.515,18.047 21.223,17.912C21.931,17.777 22.509,17.612 22.957,17.414L23.495,20.667C23.28,20.775 22.993,20.883 22.635,20.99C22.276,21.098 21.877,21.192 21.438,21.272C20.999,21.353 20.528,21.42 20.027,21.474C19.525,21.528 19.023,21.555 18.522,21.555C17.249,21.555 16.143,21.366 15.202,20.99C14.261,20.614 13.481,20.099 12.863,19.444C12.245,18.79 11.788,18.015 11.492,17.119C11.196,16.223 11.048,15.255 11.048,14.216L11.048,14.216Z" style="fill:rgb(56,56,56);"/>
        <path id="Fill-6" d="M32.823,18.382C33.217,18.382 33.593,18.374 33.952,18.355C34.31,18.338 34.597,18.311 34.812,18.275L34.812,15.237C34.651,15.202 34.409,15.166 34.086,15.13C33.764,15.094 33.468,15.076 33.199,15.076C32.823,15.076 32.469,15.099 32.137,15.143C31.806,15.188 31.514,15.273 31.264,15.399C31.013,15.524 30.816,15.694 30.672,15.909C30.529,16.124 30.457,16.393 30.457,16.716C30.457,17.343 30.668,17.778 31.089,18.02C31.51,18.262 32.088,18.382 32.823,18.382M32.5,6.662C33.683,6.662 34.669,6.796 35.457,7.065C36.246,7.334 36.877,7.72 37.352,8.221C37.827,8.723 38.163,9.333 38.361,10.049C38.557,10.766 38.656,11.564 38.656,12.441L38.656,20.775C38.083,20.901 37.285,21.048 36.263,21.219C35.242,21.389 34.006,21.474 32.554,21.474C31.64,21.474 30.811,21.393 30.067,21.232C29.324,21.071 28.683,20.807 28.145,20.439C27.608,20.072 27.195,19.592 26.909,19.001C26.622,18.41 26.479,17.684 26.479,16.823C26.479,15.999 26.644,15.3 26.976,14.726C27.307,14.153 27.751,13.696 28.307,13.356C28.862,13.016 29.498,12.769 30.215,12.616C30.932,12.464 31.676,12.388 32.446,12.388C32.966,12.388 33.428,12.411 33.831,12.455C34.234,12.5 34.561,12.558 34.812,12.63L34.812,12.253C34.812,11.572 34.606,11.026 34.194,10.614C33.781,10.202 33.065,9.995 32.043,9.995C31.362,9.995 30.69,10.045 30.027,10.143C29.364,10.242 28.791,10.381 28.307,10.56L27.796,7.334C28.029,7.263 28.32,7.186 28.67,7.105C29.019,7.025 29.4,6.953 29.812,6.891C30.224,6.828 30.659,6.774 31.116,6.729C31.573,6.685 32.034,6.662 32.5,6.662" style="fill:rgb(56,56,56);"/>
        <path id="Fill-8" d="M50.054,13.678C50.054,12.388 49.888,11.474 49.557,10.936C49.225,10.399 48.656,10.13 47.85,10.13C47.598,10.13 47.339,10.143 47.07,10.17C46.801,10.197 46.541,10.229 46.291,10.264L46.291,21.178L42.285,21.178L42.285,7.522C42.625,7.433 43.024,7.339 43.481,7.24C43.938,7.142 44.422,7.052 44.933,6.971C45.444,6.891 45.968,6.828 46.505,6.783C47.043,6.739 47.572,6.716 48.092,6.716C49.113,6.716 49.942,6.846 50.578,7.106C51.214,7.366 51.738,7.675 52.151,8.033C52.724,7.621 53.383,7.298 54.127,7.065C54.87,6.833 55.556,6.716 56.183,6.716C57.312,6.716 58.24,6.873 58.965,7.186C59.691,7.5 60.269,7.944 60.699,8.517C61.129,9.091 61.425,9.771 61.586,10.56C61.748,11.349 61.828,12.227 61.828,13.194L61.828,21.178L57.823,21.178L57.823,13.678C57.823,12.388 57.657,11.474 57.326,10.936C56.994,10.399 56.425,10.13 55.618,10.13C55.403,10.13 55.103,10.184 54.718,10.291C54.332,10.399 54.014,10.533 53.764,10.694C53.889,11.107 53.969,11.541 54.006,11.998C54.041,12.455 54.059,12.944 54.059,13.463L54.059,21.178L50.054,21.178L50.054,13.678L50.054,13.678Z" style="fill:rgb(56,56,56);"/>
        <path id="Fill-10" d="M74.516,14.001C74.516,11.42 73.566,10.13 71.667,10.13C71.255,10.13 70.847,10.184 70.444,10.291C70.04,10.399 69.714,10.533 69.463,10.694L69.463,17.979C69.66,18.015 69.911,18.047 70.215,18.073C70.52,18.1 70.851,18.114 71.21,18.114C72.303,18.114 73.128,17.737 73.683,16.985C74.238,16.232 74.516,15.238 74.516,14.001M78.602,14.108C78.602,15.238 78.436,16.259 78.105,17.173C77.773,18.087 77.294,18.867 76.667,19.512C76.039,20.157 75.269,20.654 74.355,21.003C73.441,21.353 72.401,21.528 71.237,21.528C70.753,21.528 70.247,21.505 69.718,21.461C69.189,21.416 68.67,21.357 68.159,21.286C67.648,21.214 67.16,21.129 66.694,21.03C66.228,20.932 65.816,20.829 65.457,20.721L65.457,0.963L69.463,0.318L69.463,7.361C69.911,7.164 70.377,7.012 70.86,6.904C71.344,6.796 71.864,6.743 72.42,6.743C73.423,6.743 74.31,6.918 75.081,7.267C75.851,7.616 76.496,8.114 77.016,8.759C77.536,9.404 77.93,10.179 78.199,11.084C78.468,11.989 78.602,12.997 78.602,14.108" style="fill:rgb(56,56,56);"/>
        <path id="Fill-12" d="M85.699,21.178L81.693,21.178L81.693,7.039L85.699,7.039L85.699,21.178ZM86.075,2.952C86.075,3.687 85.838,4.265 85.363,4.686C84.888,5.108 84.328,5.318 83.683,5.318C83.037,5.318 82.477,5.108 82.003,4.686C81.528,4.265 81.29,3.687 81.29,2.952C81.29,2.218 81.528,1.64 82.003,1.218C82.477,0.798 83.037,0.587 83.683,0.587C84.328,0.587 84.888,0.798 85.363,1.218C85.838,1.64 86.075,2.218 86.075,2.952Z" style="fill:rgb(56,56,56);"/>
        <path id="Fill-14" d="M89.328,3.517L93.333,2.872L93.333,7.038L98.145,7.038L98.145,10.372L93.333,10.372L93.333,15.345C93.333,16.188 93.481,16.859 93.777,17.361C94.072,17.863 94.668,18.114 95.564,18.114C95.994,18.114 96.438,18.073 96.895,17.993C97.352,17.912 97.769,17.8 98.145,17.657L98.71,20.775C98.226,20.973 97.688,21.143 97.097,21.286C96.505,21.429 95.779,21.501 94.919,21.501C93.826,21.501 92.921,21.353 92.204,21.057C91.487,20.762 90.914,20.35 90.484,19.821C90.054,19.293 89.753,18.651 89.583,17.898C89.412,17.146 89.328,16.313 89.328,15.399L89.328,3.517L89.328,3.517Z" style="fill:rgb(56,56,56);"/>
        <path id="Fill-15" d="M105.403,21.178L101.397,21.178L101.397,7.039L105.403,7.039L105.403,21.178ZM105.779,2.952C105.779,3.687 105.541,4.265 105.066,4.686C104.592,5.108 104.032,5.318 103.387,5.318C102.741,5.318 102.181,5.108 101.706,4.686C101.231,4.265 100.994,3.687 100.994,2.952C100.994,2.218 101.231,1.64 101.706,1.218C102.181,0.798 102.741,0.587 103.387,0.587C104.032,0.587 104.592,0.798 105.066,1.218C105.541,1.64 105.779,2.218 105.779,2.952Z" style="fill:rgb(56,56,56);"/>
        <path id="Fill-16" d="M118.305,14.081C118.305,12.845 118.059,11.873 117.566,11.165C117.073,10.457 116.37,10.103 115.456,10.103C114.542,10.103 113.834,10.457 113.332,11.165C112.831,11.873 112.58,12.845 112.58,14.081C112.58,15.318 112.831,16.299 113.332,17.025C113.834,17.751 114.542,18.114 115.456,18.114C116.37,18.114 117.073,17.751 117.566,17.025C118.059,16.299 118.305,15.318 118.305,14.081M122.392,14.081C122.392,15.193 122.23,16.21 121.908,17.132C121.585,18.056 121.119,18.844 120.51,19.498C119.9,20.153 119.17,20.659 118.319,21.017C117.468,21.375 116.513,21.555 115.456,21.555C114.417,21.555 113.471,21.375 112.62,21.017C111.769,20.659 111.038,20.153 110.429,19.498C109.82,18.844 109.345,18.056 109.005,17.132C108.664,16.21 108.494,15.193 108.494,14.081C108.494,12.97 108.669,11.957 109.018,11.044C109.368,10.13 109.851,9.35 110.47,8.705C111.088,8.06 111.823,7.558 112.674,7.2C113.525,6.841 114.452,6.662 115.456,6.662C116.478,6.662 117.414,6.841 118.265,7.2C119.116,7.558 119.847,8.06 120.456,8.705C121.065,9.35 121.54,10.13 121.881,11.044C122.221,11.957 122.392,12.97 122.392,14.081" style="fill:rgb(56,56,56);"/>
        <path id="Fill-17" d="M125.483,7.522C126.164,7.325 127.042,7.142 128.117,6.971C129.193,6.801 130.321,6.716 131.504,6.716C132.705,6.716 133.704,6.873 134.502,7.186C135.299,7.5 135.931,7.944 136.397,8.517C136.863,9.091 137.194,9.771 137.392,10.56C137.589,11.349 137.687,12.227 137.687,13.194L137.687,21.178L133.682,21.178L133.682,13.678C133.682,12.388 133.511,11.474 133.171,10.936C132.83,10.399 132.194,10.13 131.262,10.13C130.976,10.13 130.671,10.143 130.349,10.17C130.026,10.197 129.739,10.229 129.489,10.264L129.489,21.178L125.483,21.178L125.483,7.522L125.483,7.522Z" style="fill:rgb(56,56,56);"/>
    </g>
</svg>
